REM MD5 64e46ad4f3cdab9f3411d55872c17dfd
FILE "Caesars Palace II (USA).bin" BINARY
  TRACK 01 MODE2/2352
    INDEX 01 00:00:00
  TRACK 02 AUDIO
    INDEX 00 25:33:31
    INDEX 01 25:35:31
  TRACK 03 AUDIO
    INDEX 00 26:36:10
    INDEX 01 26:38:10
  TRACK 04 AUDIO
    INDEX 00 27:39:24
    INDEX 01 27:41:24
  TRACK 05 AUDIO
    INDEX 00 28:42:35
    INDEX 01 28:44:35
  TRACK 06 AUDIO
    INDEX 00 29:46:25
    INDEX 01 29:48:25
REM LEADOUT 33:17:24
